<svg width="16" height="16" fill="none" xmlns="http://www.w3.org/2000/svg"><path fill-rule="evenodd" clip-rule="evenodd" d="M14.615 7.045a5.166 5.166 0 01-.653 1.858c.025.142.038.286.038.43 0 .503-.146.983-.415 1.42-.135.217-.17.472-.183.641-.015.193-.01.405.004.608.016.228.044.467.076.693-.26-.076-.542-.152-.812-.213a5.819 5.819 0 00-.66-.115c-.181-.019-.443-.033-.676.042a5.425 5.425 0 01-1.668.258 5.363 5.363 0 01-1.92-.343 8.824 8.824 0 01-2.712-.291C6.085 13.249 7.818 14 9.666 14a6.76 6.76 0 002.054-.314h.006c.016 0 .062-.002.147.007.134.014.306.045.504.09.395.089.839.22 1.184.33.734.233 1.445-.407 1.313-1.152-.056-.32-.115-.71-.138-1.05a2.96 2.96 0 01-.004-.412.78.78 0 01.01-.083c.375-.622.591-1.33.591-2.082 0-.85-.264-1.625-.718-2.289z" fill="#FF3F3A"/><path fill-rule="evenodd" clip-rule="evenodd" d="M3.731 3.799c-.899.687-1.398 1.59-1.398 2.534 0 .472.123.926.353 1.348.088.16.113.327.121.439.01.122.005.248-.005.366a5.848 5.848 0 01-.134.765c-.07.308-.162.636-.255.944a18 18 0 011.102-.366c.295-.086.593-.16.858-.203.228-.036.56-.071.845.027A6.48 6.48 0 007.333 10c1.432 0 2.703-.444 3.602-1.132.899-.687 1.398-1.59 1.398-2.535 0-.945-.5-1.847-1.398-2.534-.9-.688-2.17-1.132-3.602-1.132-1.431 0-2.703.444-3.602 1.132zm-.81-1.06c1.152-.88 2.714-1.406 4.412-1.406s3.26.526 4.412 1.407c1.152.88 1.921 2.145 1.921 3.593s-.769 2.713-1.921 3.594c-1.152.88-2.714 1.406-4.412 1.406-.895 0-1.75-.146-2.527-.411 0 .002-.064-.004-.225.021-.186.03-.423.087-.693.166a20.59 20.59 0 00-1.599.557c-.796.31-1.606-.455-1.338-1.269.142-.431.31-.976.419-1.447.055-.237.09-.437.104-.584a1.16 1.16 0 00.005-.114A4.117 4.117 0 011 6.333c0-1.448.77-2.712 1.922-3.593z" fill="#FF3F3A"/></svg>