<svg width="224" height="284" fill="none" xmlns="http://www.w3.org/2000/svg"><g opacity=".2" clip-path="url(#clip0_4_6601)" fill="#fff"><path d="M142.097 0C63.544 0 0 63.544 0 142.097c0 78.359 63.544 142.098 142.097 142.098 78.359 0 142.098-63.544 142.098-142.098C284 63.544 220.456 0 142.097 0zm0 275.034c-73.485 0-132.936-59.451-132.936-132.937 0-73.485 59.451-132.936 132.936-132.936 73.486 0 132.937 59.451 132.937 132.936 0 73.291-59.646 132.937-132.937 132.937z"/><path d="M142.099 30.603c-61.4 0-111.3 49.9-111.3 111.3s49.9 111.3 111.3 111.3 111.3-49.705 111.3-111.105c0-61.596-49.9-111.495-111.3-111.495zm0 205.641c-52.044 0-94.342-42.297-94.342-94.341s42.298-94.342 94.342-94.342 94.342 42.298 94.342 94.342-42.298 94.341-94.342 94.341z"/><path d="M142.098 79.528c-34.501 0-62.57 28.068-62.57 62.569 0 34.501 27.874 62.57 62.57 62.57 34.501 0 62.57-28.069 62.57-62.57-.195-34.501-28.069-62.57-62.57-62.57zm0 96.096c-18.518 0-33.526-15.009-33.526-33.527 0-18.517 15.008-33.526 33.526-33.526 18.518 0 33.526 15.009 33.526 33.526 0 18.518-15.008 33.527-33.526 33.527z"/></g><defs><clipPath id="clip0_4_6601"><path fill="#fff" d="M0 0h284v284H0z"/></clipPath></defs></svg>