<svg width="16" height="16" fill="none" xmlns="http://www.w3.org/2000/svg"><path fill-rule="evenodd" clip-rule="evenodd" d="M7.702.737a.667.667 0 01.597 0l6.666 3.333a.667.667 0 010 1.193L8.3 8.596a.667.667 0 01-.597 0L1.036 5.263a.667.667 0 010-1.193L7.702.737zm-4.877 3.93L8 7.255l5.176-2.588L8 2.079 2.825 4.667z" fill="#9A9CA5"/><path fill-rule="evenodd" clip-rule="evenodd" d="M.738 7.702a.667.667 0 01.894-.298L8 10.588l6.369-3.184a.667.667 0 11.596 1.192L8.3 11.93a.667.667 0 01-.597 0L1.036 8.596a.667.667 0 01-.298-.894z" fill="#9A9CA5"/><path fill-rule="evenodd" clip-rule="evenodd" d="M.738 11.035a.667.667 0 01.894-.298L8 13.921l6.369-3.184a.667.667 0 11.596 1.193L8.3 15.263a.666.666 0 01-.597 0L1.036 11.93a.667.667 0 01-.298-.895z" fill="#9A9CA5"/></svg>