<svg width="116" height="159" fill="none" xmlns="http://www.w3.org/2000/svg"><g opacity=".8" clip-path="url(#clip0_4_6527)" fill="#fff"><path d="M81.908 4.537c-1.287 0-2.252-.972-2.252-2.269C79.656.972 80.621 0 81.908 0c1.286 0 2.251.972 2.251 2.268a2.273 2.273 0 01-2.251 2.269zm0 19.335c-1.287 0-2.252-.973-2.252-2.269 0-1.296.965-2.268 2.252-2.268 1.286 0 2.251.972 2.251 2.268 0 1.188-1.072 2.269-2.251 2.269zm0 19.226c-1.287 0-2.252-.972-2.252-2.268 0-1.296.965-2.268 2.252-2.268 1.286 0 2.251.972 2.251 2.268a2.273 2.273 0 01-2.251 2.268zm0 19.335c-1.287 0-2.252-.972-2.252-2.268 0-1.296.965-2.268 2.252-2.268 1.286 0 2.251.972 2.251 2.268a2.273 2.273 0 01-2.251 2.268zm0 19.335c-1.287 0-2.252-.972-2.252-2.268 0-1.296.965-2.268 2.252-2.268 1.286 0 2.251.972 2.251 2.268 0 1.188-1.072 2.268-2.251 2.268zm0 19.335c-1.287 0-2.252-.972-2.252-2.268 0-1.296.965-2.268 2.252-2.268 1.286 0 2.251.972 2.251 2.268a2.273 2.273 0 01-2.251 2.268zm0 19.227c-1.287 0-2.252-.972-2.252-2.268 0-1.296.965-2.269 2.252-2.269 1.286 0 2.251.973 2.251 2.269a2.273 2.273 0 01-2.251 2.268zm0 19.335c-1.287 0-2.252-.972-2.252-2.268 0-1.296.965-2.269 2.252-2.269 1.286 0 2.251.973 2.251 2.269a2.273 2.273 0 01-2.251 2.268zm0 19.335c-1.287 0-2.252-.972-2.252-2.268 0-1.296.965-2.269 2.252-2.269 1.286 0 2.251.973 2.251 2.269 0 1.188-1.072 2.268-2.251 2.268zM65.933 4.537c-1.286 0-2.251-.972-2.251-2.269C63.682.972 64.647 0 65.933 0c1.287 0 2.252.972 2.252 2.268 0 1.297-.965 2.269-2.252 2.269zm0 19.335c-1.286 0-2.251-.973-2.251-2.269 0-1.296.965-2.268 2.251-2.268 1.287 0 2.252.972 2.252 2.268 0 1.188-.965 2.269-2.252 2.269zm0 19.226c-1.286 0-2.251-.972-2.251-2.268 0-1.296.965-2.268 2.251-2.268 1.287 0 2.252.972 2.252 2.268 0 1.296-.965 2.268-2.252 2.268zm0 19.335c-1.286 0-2.251-.972-2.251-2.268 0-1.296.965-2.268 2.251-2.268 1.287 0 2.252.972 2.252 2.268 0 1.296-.965 2.268-2.252 2.268zm0 19.335c-1.286 0-2.251-.972-2.251-2.268 0-1.296.965-2.268 2.251-2.268 1.287 0 2.252.972 2.252 2.268 0 1.188-.965 2.268-2.252 2.268zm0 19.335c-1.286 0-2.251-.972-2.251-2.268 0-1.296.965-2.268 2.251-2.268 1.287 0 2.252.972 2.252 2.268 0 1.296-.965 2.268-2.252 2.268zm0 19.227c-1.286 0-2.251-.972-2.251-2.268 0-1.296.965-2.269 2.251-2.269 1.287 0 2.252.973 2.252 2.269 0 1.296-.965 2.268-2.252 2.268zm0 19.335c-1.286 0-2.251-.972-2.251-2.268 0-1.296.965-2.269 2.251-2.269 1.287 0 2.252.973 2.252 2.269 0 1.296-.965 2.268-2.252 2.268zm0 19.335c-1.286 0-2.251-.972-2.251-2.268 0-1.296.965-2.269 2.251-2.269 1.287 0 2.252.973 2.252 2.269 0 1.188-.965 2.268-2.252 2.268zM113.749 4.537c-1.287 0-2.252-.972-2.252-2.269 0-1.296.965-2.268 2.252-2.268C115.035 0 116 .972 116 2.268c0 1.297-.965 2.269-2.251 2.269zm0 19.335c-1.287 0-2.252-.973-2.252-2.269 0-1.296.965-2.268 2.252-2.268 1.286 0 2.251.972 2.251 2.268 0 1.188-.965 2.269-2.251 2.269zm0 19.226c-1.287 0-2.252-.972-2.252-2.268 0-1.296.965-2.268 2.252-2.268 1.286 0 2.251 1.08 2.251 2.268 0 1.296-.965 2.268-2.251 2.268zm0 19.335c-1.287 0-2.252-.972-2.252-2.268 0-1.296.965-2.268 2.252-2.268 1.286 0 2.251 1.08 2.251 2.268 0 1.188-.965 2.268-2.251 2.268zm0 19.335c-1.287 0-2.252-.972-2.252-2.268 0-1.296.965-2.268 2.252-2.268 1.286 0 2.251.972 2.251 2.268 0 1.188-.965 2.268-2.251 2.268zm0 19.335c-1.287 0-2.252-.972-2.252-2.268 0-1.296.965-2.268 2.252-2.268 1.286 0 2.251.972 2.251 2.268 0 1.296-.965 2.268-2.251 2.268zm0 19.227c-1.287 0-2.252-.972-2.252-2.268 0-1.296.965-2.269 2.252-2.269 1.286 0 2.251.973 2.251 2.269 0 1.296-.965 2.268-2.251 2.268zm0 19.335c-1.287 0-2.252-.972-2.252-2.268 0-1.296.965-2.269 2.252-2.269 1.286 0 2.251.973 2.251 2.269 0 1.296-.965 2.268-2.251 2.268zm0 19.335c-1.287 0-2.252-.972-2.252-2.268 0-1.296.965-2.269 2.252-2.269 1.286 0 2.251.973 2.251 2.269 0 1.188-.965 2.268-2.251 2.268zM97.774 4.537c-1.287 0-2.251-.972-2.251-2.269A2.273 2.273 0 0197.774 0c1.287 0 2.251.972 2.251 2.268 0 1.297-.965 2.269-2.251 2.269zm0 19.335c-1.287 0-2.251-.973-2.251-2.269 0-1.296.965-2.268 2.251-2.268 1.287 0 2.251.972 2.251 2.268 0 1.188-.965 2.269-2.251 2.269zm0 19.226c-1.287 0-2.251-.972-2.251-2.268 0-1.296.965-2.268 2.251-2.268 1.287 0 2.251.972 2.251 2.268 0 1.296-.965 2.268-2.251 2.268zm0 19.335c-1.287 0-2.251-.972-2.251-2.268 0-1.296.965-2.268 2.251-2.268 1.287 0 2.251.972 2.251 2.268 0 1.296-.965 2.268-2.251 2.268zm0 19.335c-1.287 0-2.251-.972-2.251-2.268 0-1.296.965-2.268 2.251-2.268 1.287 0 2.251.972 2.251 2.268 0 1.188-.965 2.268-2.251 2.268zm0 19.335c-1.287 0-2.251-.972-2.251-2.268 0-1.296.965-2.268 2.251-2.268 1.287 0 2.251.972 2.251 2.268 0 1.296-.965 2.268-2.251 2.268zm0 19.227c-1.287 0-2.251-.972-2.251-2.268 0-1.296.965-2.269 2.251-2.269 1.287 0 2.251.973 2.251 2.269 0 1.296-.965 2.268-2.251 2.268zm0 19.335c-1.287 0-2.251-.972-2.251-2.268 0-1.296.965-2.269 2.251-2.269 1.287 0 2.251.973 2.251 2.269 0 1.296-.965 2.268-2.251 2.268zm0 19.335c-1.287 0-2.251-.972-2.251-2.268 0-1.296.965-2.269 2.251-2.269 1.287 0 2.251.973 2.251 2.269 0 1.188-.965 2.268-2.251 2.268zM50.066 4.537c-1.287 0-2.251-.972-2.251-2.269C47.815.972 48.78 0 50.066 0s2.251.972 2.251 2.268a2.273 2.273 0 01-2.251 2.269zm0 19.335c-1.287 0-2.251-.973-2.251-2.269 0-1.296.965-2.268 2.251-2.268s2.251.972 2.251 2.268c0 1.188-1.072 2.269-2.251 2.269zm0 19.226c-1.287 0-2.251-.972-2.251-2.268 0-1.296.965-2.268 2.251-2.268s2.251.972 2.251 2.268a2.273 2.273 0 01-2.251 2.268zm0 19.335c-1.287 0-2.251-.972-2.251-2.268 0-1.296.965-2.268 2.251-2.268s2.251.972 2.251 2.268a2.273 2.273 0 01-2.251 2.268zm0 19.335c-1.287 0-2.251-.972-2.251-2.268 0-1.296.965-2.268 2.251-2.268s2.251.972 2.251 2.268c0 1.188-1.072 2.268-2.251 2.268zm0 19.335c-1.287 0-2.251-.972-2.251-2.268 0-1.296.965-2.268 2.251-2.268s2.251.972 2.251 2.268a2.273 2.273 0 01-2.251 2.268zm0 19.227c-1.287 0-2.251-.972-2.251-2.268 0-1.296.965-2.269 2.251-2.269s2.251.973 2.251 2.269a2.273 2.273 0 01-2.251 2.268zm0 19.335c-1.287 0-2.251-.972-2.251-2.268 0-1.296.965-2.269 2.251-2.269s2.251.973 2.251 2.269a2.273 2.273 0 01-2.251 2.268zm0 19.335c-1.287 0-2.251-.972-2.251-2.268 0-1.296.965-2.269 2.251-2.269s2.251.973 2.251 2.269c0 1.188-1.072 2.268-2.251 2.268zM34.092 4.537c-1.286 0-2.251-.972-2.251-2.269C31.841.972 32.806 0 34.092 0c1.287 0 2.252.972 2.252 2.268 0 1.297-.965 2.269-2.252 2.269zm0 19.335c-1.286 0-2.251-.973-2.251-2.269 0-1.296.965-2.268 2.251-2.268 1.287 0 2.252.972 2.252 2.268 0 1.188-.965 2.269-2.252 2.269zm0 19.226c-1.286 0-2.251-.972-2.251-2.268 0-1.296.965-2.268 2.251-2.268 1.287 0 2.252.972 2.252 2.268 0 1.296-.965 2.268-2.252 2.268zm-2.251 17.067a2.26 2.26 0 002.251 2.268 2.26 2.26 0 002.252-2.268 2.26 2.26 0 00-2.252-2.268 2.26 2.26 0 00-2.251 2.268zm2.251 21.603c-1.286 0-2.251-.972-2.251-2.268 0-1.296.965-2.268 2.251-2.268 1.287 0 2.252.972 2.252 2.268 0 1.188-.965 2.268-2.252 2.268zm0 19.335c-1.286 0-2.251-.972-2.251-2.268 0-1.296.965-2.268 2.251-2.268 1.287 0 2.252.972 2.252 2.268 0 1.296-.965 2.268-2.252 2.268zm0 19.227c-1.286 0-2.251-.972-2.251-2.268 0-1.296.965-2.269 2.251-2.269 1.287 0 2.252.973 2.252 2.269 0 1.296-.965 2.268-2.252 2.268zm-2.251 17.067a2.26 2.26 0 002.251 2.268 2.26 2.26 0 002.252-2.268 2.26 2.26 0 00-2.252-2.269 2.26 2.26 0 00-2.251 2.269zM34.092 159c-1.286 0-2.251-.972-2.251-2.268 0-1.296.965-2.269 2.251-2.269 1.287 0 2.252.973 2.252 2.269 0 1.188-.965 2.268-2.252 2.268zM18.119 4.537c-1.287 0-2.252-.972-2.252-2.269C15.867.972 16.832 0 18.12 0c1.286 0 2.251.972 2.251 2.268 0 1.297-.965 2.269-2.251 2.269zm0 19.335c-1.287 0-2.252-.973-2.252-2.269 0-1.296.965-2.268 2.252-2.268 1.286 0 2.251.972 2.251 2.268 0 1.188-.965 2.269-2.251 2.269zm0 19.226c-1.287 0-2.252-.972-2.252-2.268 0-1.296.965-2.268 2.252-2.268 1.286 0 2.251.972 2.251 2.268 0 1.296-.965 2.268-2.251 2.268zm0 19.335c-1.287 0-2.252-.972-2.252-2.268 0-1.296.965-2.268 2.252-2.268 1.286 0 2.251.972 2.251 2.268 0 1.296-.965 2.268-2.251 2.268zm0 19.335c-1.287 0-2.252-.972-2.252-2.268 0-1.296.965-2.268 2.252-2.268 1.286 0 2.251.972 2.251 2.268 0 1.188-.965 2.268-2.251 2.268zm0 19.335c-1.287 0-2.252-.972-2.252-2.268 0-1.296.965-2.268 2.252-2.268 1.286 0 2.251.972 2.251 2.268 0 1.296-.965 2.268-2.251 2.268zm0 19.227c-1.287 0-2.252-.972-2.252-2.268 0-1.296.965-2.269 2.252-2.269 1.286 0 2.251.973 2.251 2.269 0 1.296-.965 2.268-2.251 2.268zm0 19.335c-1.287 0-2.252-.972-2.252-2.268 0-1.296.965-2.269 2.252-2.269 1.286 0 2.251.973 2.251 2.269 0 1.296-.965 2.268-2.251 2.268zm0 19.335c-1.287 0-2.252-.972-2.252-2.268 0-1.296.965-2.269 2.252-2.269 1.286 0 2.251.973 2.251 2.269 0 1.188-.965 2.268-2.251 2.268zM2.252 4.537C.965 4.537 0 3.565 0 2.268 0 .972.965 0 2.252 0c1.286 0 2.25.972 2.25 2.268a2.273 2.273 0 01-2.25 2.269zm0 19.335C.965 23.872 0 22.899 0 21.603c0-1.296.965-2.268 2.252-2.268 1.286 0 2.25.972 2.25 2.268 0 1.188-1.071 2.269-2.25 2.269zm0 19.226C.965 43.098 0 42.126 0 40.83c0-1.296.965-2.268 2.252-2.268 1.286 0 2.25.972 2.25 2.268a2.273 2.273 0 01-2.25 2.268zm0 19.335C.965 62.433 0 61.461 0 60.165c0-1.296.965-2.268 2.252-2.268 1.286 0 2.25.972 2.25 2.268a2.273 2.273 0 01-2.25 2.268zm0 19.335C.965 81.768 0 80.796 0 79.5c0-1.296.965-2.268 2.252-2.268 1.286 0 2.25.972 2.25 2.268 0 1.188-1.071 2.268-2.25 2.268zm0 19.335c-1.287 0-2.252-.972-2.252-2.268 0-1.296.965-2.268 2.252-2.268 1.286 0 2.25.972 2.25 2.268a2.273 2.273 0 01-2.25 2.268zm0 19.227c-1.287 0-2.252-.972-2.252-2.268 0-1.296.965-2.269 2.252-2.269 1.286 0 2.25.973 2.25 2.269a2.273 2.273 0 01-2.25 2.268zm0 19.335c-1.287 0-2.252-.972-2.252-2.268 0-1.296.965-2.269 2.252-2.269 1.286 0 2.25.973 2.25 2.269a2.273 2.273 0 01-2.25 2.268zm0 19.335C.965 159 0 158.028 0 156.732c0-1.296.965-2.269 2.252-2.269 1.286 0 2.25.973 2.25 2.269 0 1.188-1.071 2.268-2.25 2.268z"/></g><defs><clipPath id="clip0_4_6527"><path fill="#fff" transform="rotate(90 58 58)" d="M0 0h159v116H0z"/></clipPath></defs></svg>