<svg width="16" height="16" fill="none" xmlns="http://www.w3.org/2000/svg"><path fill-rule="evenodd" clip-rule="evenodd" d="M9.454 2.167a.263.263 0 00-.226.13l-.004.007L6.166 7.26v6.572h5.724c.123 0 .23-.085.256-.205l.002-.01 1.7-6.64a.262.262 0 00-.257-.311H11c-.434 0-.874-.145-1.194-.457a1.406 1.406 0 01-.392-1.305l.48-2.426a.262.262 0 00-.257-.312h-.183zM4.833 13.833V7.738H2.471a.262.262 0 00-.262.26l-.043 5.571a.262.262 0 00.262.264h2.405zm.295-7.428L8.08 1.617A1.595 1.595 0 019.454.833h.183c1.005 0 1.76.919 1.565 1.905l-.48 2.426a.139.139 0 00-.001.067.057.057 0 00.017.024c.028.028.11.078.262.078h2.591c1.02 0 1.779.946 1.557 1.942l-.002.01-1.701 6.644a1.595 1.595 0 01-1.555 1.238H2.428a1.595 1.595 0 01-1.595-1.608l.043-5.571A1.595 1.595 0 012.47 6.405h2.657z" fill="#FF3F3A"/></svg>