<svg width="16" height="16" fill="none" xmlns="http://www.w3.org/2000/svg"><path fill-rule="evenodd" clip-rule="evenodd" d="M6.78 1.468C7.243.4 8.758.4 9.22 1.468l1.402 3.23 3.506.335c1.159.11 1.627 1.55.754 2.321l-2.64 2.331.766 3.438c.253 1.136-.972 2.026-1.975 1.435L8 12.768l-3.032 1.79c-1.003.591-2.228-.299-1.975-1.435l.765-3.438-2.64-2.33c-.872-.771-.404-2.212.755-2.322l3.506-.334 1.4-3.231zm2.62 3.76L8 1.997 6.598 5.228a1.33 1.33 0 01-1.094.795l-3.506.334 2.64 2.331c.363.32.523.814.418 1.287l-.766 3.437 3.033-1.79a1.33 1.33 0 011.353 0l3.032 1.79-.765-3.438a1.33 1.33 0 01.418-1.286l2.64-2.33-3.506-.335A1.33 1.33 0 019.4 5.228z" fill="#9A9CA5"/></svg>