<svg width="16" height="16" fill="none" xmlns="http://www.w3.org/2000/svg"><path fill-rule="evenodd" clip-rule="evenodd" d="M8 13.272C4.932 11.526 3.222 9.79 2.395 8.284c-.846-1.541-.772-2.84-.303-3.76.966-1.895 3.71-2.5 5.383-.385L8 4.801l.523-.662c1.673-2.115 4.418-1.51 5.383.384.47.922.544 2.22-.303 3.761-.826 1.506-2.537 3.242-5.603 4.988zM8 2.738C5.645.502 2.175 1.426.904 3.918.208 5.285.2 7.053 1.228 8.926c1.019 1.857 3.052 3.816 6.449 5.694l.322.178.323-.178c3.397-1.878 5.43-3.837 6.45-5.694 1.028-1.873 1.018-3.64.321-5.008C13.823 1.426 10.353.502 8 2.738z" fill="#FF3F3A"/></svg>