<svg width="20" height="20" fill="none" xmlns="http://www.w3.org/2000/svg"><path d="M10.176 8.752h8.23c.09.507.135.992.135 1.453 0 1.643-.344 3.109-1.033 4.399a7.458 7.458 0 01-2.945 3.025c-1.275.726-2.738 1.09-4.387 1.09a8.57 8.57 0 01-3.394-.687A8.716 8.716 0 014 16.176a8.717 8.717 0 01-1.856-2.781 8.57 8.57 0 01-.687-3.394c0-1.188.229-2.32.687-3.394A8.717 8.717 0 014 3.827 8.717 8.717 0 016.78 1.97a8.57 8.57 0 013.395-.687c2.27 0 4.218.761 5.845 2.282l-2.37 2.282c-.93-.901-2.089-1.351-3.473-1.351a5.21 5.21 0 00-2.708.738A5.437 5.437 0 005.5 7.237a5.456 5.456 0 00-.726 2.764c0 .999.242 1.92.726 2.764a5.437 5.437 0 001.97 2.003 5.208 5.208 0 002.707.738c.658 0 1.263-.09 1.816-.272.552-.182 1.006-.409 1.362-.681a4.91 4.91 0 00.93-.931c.266-.348.46-.677.585-.988.125-.31.21-.605.256-.885h-4.95V8.752z" fill="#787A80"/></svg>